<?xml version="1.0" standalone="no"?>
<!DOCTYPE svg PUBLIC "-//W3C//DTD SVG 20010904//EN"
 "http://www.w3.org/TR/2001/REC-SVG-20010904/DTD/svg10.dtd">
<svg version="1.0" xmlns="http://www.w3.org/2000/svg"
 width="700.000000pt" height="700.000000pt" viewBox="0 0 700.000000 700.000000"
 preserveAspectRatio="xMidYMid meet">
<metadata>
Created by potrace 1.14, written by Peter Selinger 2001-2017
</metadata>
<g transform="translate(0.000000,700.000000) scale(0.100000,-0.100000)"
fill="#000000" stroke="none">
<path d="M3255 6923 c-674 -56 -1309 -306 -1855 -729 -143 -111 -428 -393
-544 -539 -174 -218 -348 -502 -452 -735 -70 -158 -68 -150 -36 -135 46 23
201 65 322 87 158 29 510 32 679 5 99 -16 283 -59 419 -99 50 -14 38 -20 247
117 289 190 622 440 950 714 94 78 224 178 289 222 531 354 1163 430 1879 224
318 -91 662 -243 1015 -448 l113 -66 -52 67 c-577 741 -1420 1207 -2364 1307
-126 13 -491 18 -610 8z"/>
<path d="M6891 4100 c-1 -10 -29 -23 -79 -38 -217 -66 -568 -229 -829 -386
-273 -163 -580 -385 -906 -656 -188 -156 -289 -232 -398 -302 -1032 -665
-2311 -596 -3749 204 -186 104 -505 305 -679 429 l-154 110 6 -138 c42 -895
469 -1789 1138 -2378 546 -481 1182 -765 1909 -851 196 -24 554 -24 750 0 396
47 759 152 1108 321 358 174 625 360 900 629 578 564 924 1275 1023 2101 20
166 17 607 -5 770 -18 132 -33 212 -35 185z"/>
</g>
</svg>
